<svg id="my-svg" width="100%" xmlns="http://www.w3.org/2000/svg" xmlns:xlink="http://www.w3.org/1999/xlink" class="flowchart" style="max-width: 1797.15px; background-color: white;" viewBox="0 0 1797.1484375 1642" role="graphics-document document" aria-roledescription="flowchart-v2"><style>#my-svg{font-family:"trebuchet ms",verdana,arial,sans-serif;font-size:16px;fill:#333;}@keyframes edge-animation-frame{from{stroke-dashoffset:0;}}@keyframes dash{to{stroke-dashoffset:0;}}#my-svg .edge-animation-slow{stroke-dasharray:9,5!important;stroke-dashoffset:900;animation:dash 50s linear infinite;stroke-linecap:round;}#my-svg .edge-animation-fast{stroke-dasharray:9,5!important;stroke-dashoffset:900;animation:dash 20s linear infinite;stroke-linecap:round;}#my-svg .error-icon{fill:#552222;}#my-svg .error-text{fill:#552222;stroke:#552222;}#my-svg .edge-thickness-normal{stroke-width:1px;}#my-svg .edge-thickness-thick{stroke-width:3.5px;}#my-svg .edge-pattern-solid{stroke-dasharray:0;}#my-svg .edge-thickness-invisible{stroke-width:0;fill:none;}#my-svg .edge-pattern-dashed{stroke-dasharray:3;}#my-svg .edge-pattern-dotted{stroke-dasharray:2;}#my-svg .marker{fill:#333333;stroke:#333333;}#my-svg .marker.cross{stroke:#333333;}#my-svg svg{font-family:"trebuchet ms",verdana,arial,sans-serif;font-size:16px;}#my-svg p{margin:0;}#my-svg .label{font-family:"trebuchet ms",verdana,arial,sans-serif;color:#333;}#my-svg .cluster-label text{fill:#333;}#my-svg .cluster-label span{color:#333;}#my-svg .cluster-label span p{background-color:transparent;}#my-svg .label text,#my-svg span{fill:#333;color:#333;}#my-svg .node rect,#my-svg .node circle,#my-svg .node ellipse,#my-svg .node polygon,#my-svg .node path{fill:#ECECFF;stroke:#9370DB;stroke-width:1px;}#my-svg .rough-node .label text,#my-svg .node .label text,#my-svg .image-shape .label,#my-svg .icon-shape .label{text-anchor:middle;}#my-svg .node .katex path{fill:#000;stroke:#000;stroke-width:1px;}#my-svg .rough-node .label,#my-svg .node .label,#my-svg .image-shape .label,#my-svg .icon-shape .label{text-align:center;}#my-svg .node.clickable{cursor:pointer;}#my-svg .root .anchor path{fill:#333333!important;stroke-width:0;stroke:#333333;}#my-svg .arrowheadPath{fill:#333333;}#my-svg .edgePath .path{stroke:#333333;stroke-width:2.0px;}#my-svg .flowchart-link{stroke:#333333;fill:none;}#my-svg .edgeLabel{background-color:rgba(232,232,232, 0.8);text-align:center;}#my-svg .edgeLabel p{background-color:rgba(232,232,232, 0.8);}#my-svg .edgeLabel rect{opacity:0.5;background-color:rgba(232,232,232, 0.8);fill:rgba(232,232,232, 0.8);}#my-svg .labelBkg{background-color:rgba(232, 232, 232, 0.5);}#my-svg .cluster rect{fill:#ffffde;stroke:#aaaa33;stroke-width:1px;}#my-svg .cluster text{fill:#333;}#my-svg .cluster span{color:#333;}#my-svg div.mermaidTooltip{position:absolute;text-align:center;max-width:200px;padding:2px;font-family:"trebuchet ms",verdana,arial,sans-serif;font-size:12px;background:hsl(80, 100%, 96.2745098039%);border:1px solid #aaaa33;border-radius:2px;pointer-events:none;z-index:100;}#my-svg .flowchartTitleText{text-anchor:middle;font-size:18px;fill:#333;}#my-svg rect.text{fill:none;stroke-width:0;}#my-svg .icon-shape,#my-svg .image-shape{background-color:rgba(232,232,232, 0.8);text-align:center;}#my-svg .icon-shape p,#my-svg .image-shape p{background-color:rgba(232,232,232, 0.8);padding:2px;}#my-svg .icon-shape .label rect,#my-svg .image-shape .label rect{opacity:0.5;background-color:rgba(232,232,232, 0.8);fill:rgba(232,232,232, 0.8);}#my-svg .label-icon{display:inline-block;height:1em;overflow:visible;vertical-align:-0.125em;}#my-svg .node .label-icon path{fill:currentColor;stroke:revert;stroke-width:revert;}#my-svg :root{--mermaid-font-family:"trebuchet ms",verdana,arial,sans-serif;}</style><g><marker id="my-svg_flowchart-v2-pointEnd" class="marker flowchart-v2" viewBox="0 0 10 10" refX="5" refY="5" markerUnits="userSpaceOnUse" markerWidth="8" markerHeight="8" orient="auto"><path d="M 0 0 L 10 5 L 0 10 z" class="arrowMarkerPath" style="stroke-width: 1; stroke-dasharray: 1, 0;"/></marker><marker id="my-svg_flowchart-v2-pointStart" class="marker flowchart-v2" viewBox="0 0 10 10" refX="4.5" refY="5" markerUnits="userSpaceOnUse" markerWidth="8" markerHeight="8" orient="auto"><path d="M 0 5 L 10 10 L 10 0 z" class="arrowMarkerPath" style="stroke-width: 1; stroke-dasharray: 1, 0;"/></marker><marker id="my-svg_flowchart-v2-circleEnd" class="marker flowchart-v2" viewBox="0 0 10 10" refX="11" refY="5" markerUnits="userSpaceOnUse" markerWidth="11" markerHeight="11" orient="auto"><circle cx="5" cy="5" r="5" class="arrowMarkerPath" style="stroke-width: 1; stroke-dasharray: 1, 0;"/></marker><marker id="my-svg_flowchart-v2-circleStart" class="marker flowchart-v2" viewBox="0 0 10 10" refX="-1" refY="5" markerUnits="userSpaceOnUse" markerWidth="11" markerHeight="11" orient="auto"><circle cx="5" cy="5" r="5" class="arrowMarkerPath" style="stroke-width: 1; stroke-dasharray: 1, 0;"/></marker><marker id="my-svg_flowchart-v2-crossEnd" class="marker cross flowchart-v2" viewBox="0 0 11 11" refX="12" refY="5.2" markerUnits="userSpaceOnUse" markerWidth="11" markerHeight="11" orient="auto"><path d="M 1,1 l 9,9 M 10,1 l -9,9" class="arrowMarkerPath" style="stroke-width: 2; stroke-dasharray: 1, 0;"/></marker><marker id="my-svg_flowchart-v2-crossStart" class="marker cross flowchart-v2" viewBox="0 0 11 11" refX="-1" refY="5.2" markerUnits="userSpaceOnUse" markerWidth="11" markerHeight="11" orient="auto"><path d="M 1,1 l 9,9 M 10,1 l -9,9" class="arrowMarkerPath" style="stroke-width: 2; stroke-dasharray: 1, 0;"/></marker><g class="root"><g class="clusters"><g class="cluster" id="AI" data-look="classic"><rect style="" x="255.50390625" y="1506" width="566.1953125" height="128"/><g class="cluster-label" transform="translate(483.515625, 1506)"><foreignObject width="110.171875" height="24"><div xmlns="http://www.w3.org/1999/xhtml" style="display: table-cell; white-space: nowrap; line-height: 1.5;"><span class="nodeLabel"><p>AWS AI Services</p></span></div></foreignObject></g></g><g class="cluster" id="Pipeline" data-look="classic"><rect style="" x="8" y="1096" width="763.3359375" height="360"/><g class="cluster-label" transform="translate(344.01171875, 1096)"><foreignObject width="91.3125" height="24"><div xmlns="http://www.w3.org/1999/xhtml" style="display: table-cell; white-space: nowrap; line-height: 1.5;"><span class="nodeLabel"><p>AWS Pipeline</p></span></div></foreignObject></g></g><g class="cluster" id="Ingestion" data-look="classic"><rect style="" x="187.0703125" y="741" width="257.40625" height="281"/><g class="cluster-label" transform="translate(266.3515625, 741)"><foreignObject width="98.84375" height="24"><div xmlns="http://www.w3.org/1999/xhtml" style="display: table-cell; white-space: nowrap; line-height: 1.5;"><span class="nodeLabel"><p>AWS Ingestion</p></span></div></foreignObject></g></g><g class="cluster" id="Storage" data-look="classic"><rect style="" x="845.12890625" y="564" width="380.72265625" height="1070"/><g class="cluster-label" transform="translate(991.396484375, 564)"><foreignObject width="88.1875" height="24"><div xmlns="http://www.w3.org/1999/xhtml" style="display: table-cell; white-space: nowrap; line-height: 1.5;"><span class="nodeLabel"><p>AWS Storage</p></span></div></foreignObject></g></g><g class="cluster" id="API" data-look="classic"><rect style="" x="983.51171875" y="210" width="447.40234375" height="280"/><g class="cluster-label" transform="translate(1179.158203125, 210)"><foreignObject width="56.109375" height="24"><div xmlns="http://www.w3.org/1999/xhtml" style="display: table-cell; white-space: nowrap; line-height: 1.5;"><span class="nodeLabel"><p>AWS API</p></span></div></foreignObject></g></g><g class="cluster" id="Auth" data-look="classic"><rect style="" x="1260.765625" y="564" width="300.765625" height="305"/><g class="cluster-label" transform="translate(1377.8671875, 564)"><foreignObject width="66.5625" height="24"><div xmlns="http://www.w3.org/1999/xhtml" style="display: table-cell; white-space: nowrap; line-height: 1.5;"><span class="nodeLabel"><p>AWS Auth</p></span></div></foreignObject></g></g><g class="cluster" id="Edge" data-look="classic"><rect style="" x="1546.6015625" y="210" width="242.546875" height="280"/><g class="cluster-label" transform="translate(1633.6640625, 210)"><foreignObject width="68.421875" height="24"><div xmlns="http://www.w3.org/1999/xhtml" style="display: table-cell; white-space: nowrap; line-height: 1.5;"><span class="nodeLabel"><p>AWS Edge</p></span></div></foreignObject></g></g><g class="cluster" id="Client" data-look="classic"><rect style="" x="860.84375" y="8" width="836.5078125" height="128"/><g class="cluster-label" transform="translate(1257.76171875, 8)"><foreignObject width="42.671875" height="24"><div xmlns="http://www.w3.org/1999/xhtml" style="display: table-cell; white-space: nowrap; line-height: 1.5;"><span class="nodeLabel"><p>Client</p></span></div></foreignObject></g></g></g><g class="edgePaths"><path d="M1368.785,84.202L1418.633,92.835C1468.482,101.468,1568.178,118.734,1618.027,133.534C1667.875,148.333,1667.875,160.667,1667.875,173C1667.875,185.333,1667.875,197.667,1667.875,209.333C1667.875,221,1667.875,232,1667.875,237.5L1667.875,243" id="L_Browser_CF_0" class="edge-thickness-normal edge-pattern-solid edge-thickness-normal edge-pattern-solid flowchart-link" style=";" data-edge="true" data-et="edge" data-id="L_Browser_CF_0" data-points="W3sieCI6MTM2OC43ODUxNTYyNSwieSI6ODQuMjAxNTU4MDkwMTI0fSx7IngiOjE2NjcuODc1LCJ5IjoxMzZ9LHsieCI6MTY2Ny44NzUsInkiOjE3M30seyJ4IjoxNjY3Ljg3NSwieSI6MjEwfSx7IngiOjE2NjcuODc1LCJ5IjoyNDd9XQ==" marker-end="url(#my-svg_flowchart-v2-pointEnd)"/><path d="M1667.875,301L1667.875,309.167C1667.875,317.333,1667.875,333.667,1667.875,347.333C1667.875,361,1667.875,372,1667.875,377.5L1667.875,383" id="L_CF_S3F_0" class="edge-thickness-normal edge-pattern-solid edge-thickness-normal edge-pattern-solid flowchart-link" style=";" data-edge="true" data-et="edge" data-id="L_CF_S3F_0" data-points="W3sieCI6MTY2Ny44NzUsInkiOjMwMX0seyJ4IjoxNjY3Ljg3NSwieSI6MzUwfSx7IngiOjE2NjcuODc1LCJ5IjozODd9XQ==" marker-end="url(#my-svg_flowchart-v2-pointEnd)"/><path d="M1368.785,95.679L1388.781,102.399C1408.776,109.119,1448.767,122.56,1468.762,135.446C1488.758,148.333,1488.758,160.667,1488.758,173C1488.758,185.333,1488.758,197.667,1488.758,214.5C1488.758,231.333,1488.758,252.667,1488.758,276C1488.758,299.333,1488.758,324.667,1488.758,350C1488.758,375.333,1488.758,400.667,1488.758,424C1488.758,447.333,1488.758,468.667,1488.758,485.5C1488.758,502.333,1488.758,514.667,1488.758,527C1488.758,539.333,1488.758,551.667,1484.647,561.553C1480.536,571.439,1472.314,578.878,1468.203,582.597L1464.092,586.316" id="L_Browser_Cognito_0" class="edge-thickness-normal edge-pattern-solid edge-thickness-normal edge-pattern-solid flowchart-link" style=";" data-edge="true" data-et="edge" data-id="L_Browser_Cognito_0" data-points="W3sieCI6MTM2OC43ODUxNTYyNSwieSI6OTUuNjc4NTE2NDgyMzg5Mzh9LHsieCI6MTQ4OC43NTc4MTI1LCJ5IjoxMzZ9LHsieCI6MTQ4OC43NTc4MTI1LCJ5IjoxNzN9LHsieCI6MTQ4OC43NTc4MTI1LCJ5IjoyMTB9LHsieCI6MTQ4OC43NTc4MTI1LCJ5IjoyNzR9LHsieCI6MTQ4OC43NTc4MTI1LCJ5IjozNTB9LHsieCI6MTQ4OC43NTc4MTI1LCJ5Ijo0MjZ9LHsieCI6MTQ4OC43NTc4MTI1LCJ5Ijo0OTB9LHsieCI6MTQ4OC43NTc4MTI1LCJ5Ijo1Mjd9LHsieCI6MTQ4OC43NTc4MTI1LCJ5Ijo1NjR9LHsieCI6MTQ2MS4xMjU2NzEzODY3MTg4LCJ5Ijo1ODl9XQ==" marker-end="url(#my-svg_flowchart-v2-pointEnd)"/><path d="M1418.02,667L1418.02,673.167C1418.02,679.333,1418.02,691.667,1418.02,704C1418.02,716.333,1418.02,728.667,1418.02,738.333C1418.02,748,1418.02,755,1418.02,758.5L1418.02,762" id="L_Cognito_PreSignUp_0" class="edge-thickness-normal edge-pattern-solid edge-thickness-normal edge-pattern-solid flowchart-link" style=";" data-edge="true" data-et="edge" data-id="L_Cognito_PreSignUp_0" data-points="W3sieCI6MTQxOC4wMTk1MzEyNSwieSI6NjY3fSx7IngiOjE0MTguMDE5NTMxMjUsInkiOjcwNH0seyJ4IjoxNDE4LjAxOTUzMTI1LCJ5Ijo3NDF9LHsieCI6MTQxOC4wMTk1MzEyNSwieSI6NzY2fV0=" marker-end="url(#my-svg_flowchart-v2-pointEnd)"/><path d="M1252.945,111L1248.097,115.167C1243.248,119.333,1233.55,127.667,1228.701,138C1223.852,148.333,1223.852,160.667,1223.852,173C1223.852,185.333,1223.852,197.667,1223.852,207.333C1223.852,217,1223.852,224,1223.852,227.5L1223.852,231" id="L_Browser_APIGW_0" class="edge-thickness-normal edge-pattern-solid edge-thickness-normal edge-pattern-solid flowchart-link" style=";" data-edge="true" data-et="edge" data-id="L_Browser_APIGW_0" data-points="W3sieCI6MTI1Mi45NDU0OTU2MDU0Njg4LCJ5IjoxMTF9LHsieCI6MTIyMy44NTE1NjI1LCJ5IjoxMzZ9LHsieCI6MTIyMy44NTE1NjI1LCJ5IjoxNzN9LHsieCI6MTIyMy44NTE1NjI1LCJ5IjoyMTB9LHsieCI6MTIyMy44NTE1NjI1LCJ5IjoyMzV9XQ==" marker-end="url(#my-svg_flowchart-v2-pointEnd)"/><path d="M1275.544,313L1283.718,319.167C1291.891,325.333,1308.239,337.667,1316.412,349.333C1324.586,361,1324.586,372,1324.586,377.5L1324.586,383" id="L_APIGW_CogAuth_0" class="edge-thickness-normal edge-pattern-solid edge-thickness-normal edge-pattern-solid flowchart-link" style=";" data-edge="true" data-et="edge" data-id="L_APIGW_CogAuth_0" data-points="W3sieCI6MTI3NS41NDQyMDIzMDI2MzE3LCJ5IjozMTN9LHsieCI6MTMyNC41ODU5Mzc1LCJ5IjozNTB9LHsieCI6MTMyNC41ODU5Mzc1LCJ5IjozODd9XQ==" marker-end="url(#my-svg_flowchart-v2-pointEnd)"/><path d="M1324.586,465L1324.586,469.167C1324.586,473.333,1324.586,481.667,1324.586,492C1324.586,502.333,1324.586,514.667,1324.586,527C1324.586,539.333,1324.586,551.667,1330.119,561.623C1335.652,571.58,1346.718,579.16,1352.25,582.95L1357.783,586.74" id="L_CogAuth_Cognito_0" class="edge-thickness-normal edge-pattern-solid edge-thickness-normal edge-pattern-solid flowchart-link" style=";" data-edge="true" data-et="edge" data-id="L_CogAuth_Cognito_0" data-points="W3sieCI6MTMyNC41ODU5Mzc1LCJ5Ijo0NjV9LHsieCI6MTMyNC41ODU5Mzc1LCJ5Ijo0OTB9LHsieCI6MTMyNC41ODU5Mzc1LCJ5Ijo1Mjd9LHsieCI6MTMyNC41ODU5Mzc1LCJ5Ijo1NjR9LHsieCI6MTM2MS4wODM0MzUwNTg1OTM4LCJ5Ijo1ODl9XQ==" marker-end="url(#my-svg_flowchart-v2-pointEnd)"/><path d="M1174.428,313L1166.613,319.167C1158.798,325.333,1143.169,337.667,1135.354,349.333C1127.539,361,1127.539,372,1127.539,377.5L1127.539,383" id="L_APIGW_APILambda_0" class="edge-thickness-normal edge-pattern-solid edge-thickness-normal edge-pattern-solid flowchart-link" style=";" data-edge="true" data-et="edge" data-id="L_APIGW_APILambda_0" data-points="W3sieCI6MTE3NC40MjgwNDI3NjMxNTgsInkiOjMxM30seyJ4IjoxMTI3LjUzOTA2MjUsInkiOjM1MH0seyJ4IjoxMTI3LjUzOTA2MjUsInkiOjM4N31d" marker-end="url(#my-svg_flowchart-v2-pointEnd)"/><path d="M1144.259,465L1146.045,469.167C1147.831,473.333,1151.404,481.667,1153.19,492C1154.977,502.333,1154.977,514.667,1154.977,527C1154.977,539.333,1154.977,551.667,1154.977,568.5C1154.977,585.333,1154.977,606.667,1154.977,630C1154.977,653.333,1154.977,678.667,1154.977,697.5C1154.977,716.333,1154.977,728.667,1154.977,745.5C1154.977,762.333,1154.977,783.667,1154.977,805C1154.977,826.333,1154.977,847.667,1154.977,862.5C1154.977,877.333,1154.977,885.667,1154.977,900.5C1154.977,915.333,1154.977,936.667,1154.977,958C1154.977,979.333,1154.977,1000.667,1154.977,1017.5C1154.977,1034.333,1154.977,1046.667,1154.977,1059C1154.977,1071.333,1154.977,1083.667,1154.977,1098.5C1154.977,1113.333,1154.977,1130.667,1154.977,1148C1154.977,1165.333,1154.977,1182.667,1154.977,1202C1154.977,1221.333,1154.977,1242.667,1154.977,1264C1154.977,1285.333,1154.977,1306.667,1154.977,1328C1154.977,1349.333,1154.977,1370.667,1154.977,1392C1154.977,1413.333,1154.977,1434.667,1154.977,1449.5C1154.977,1464.333,1154.977,1472.667,1154.977,1481C1154.977,1489.333,1154.977,1497.667,1152.198,1507.403C1149.42,1517.14,1143.864,1528.28,1141.085,1533.85L1138.307,1539.421" id="L_APILambda_DDB_0" class="edge-thickness-normal edge-pattern-solid edge-thickness-normal edge-pattern-solid flowchart-link" style=";" data-edge="true" data-et="edge" data-id="L_APILambda_DDB_0" data-points="W3sieCI6MTE0NC4yNTg3ODkwNjI1LCJ5Ijo0NjV9LHsieCI6MTE1NC45NzY1NjI1LCJ5Ijo0OTB9LHsieCI6MTE1NC45NzY1NjI1LCJ5Ijo1Mjd9LHsieCI6MTE1NC45NzY1NjI1LCJ5Ijo1NjR9LHsieCI6MTE1NC45NzY1NjI1LCJ5Ijo2Mjh9LHsieCI6MTE1NC45NzY1NjI1LCJ5Ijo3MDR9LHsieCI6MTE1NC45NzY1NjI1LCJ5Ijo3NDF9LHsieCI6MTE1NC45NzY1NjI1LCJ5Ijo4MDV9LHsieCI6MTE1NC45NzY1NjI1LCJ5Ijo4Njl9LHsieCI6MTE1NC45NzY1NjI1LCJ5Ijo4OTR9LHsieCI6MTE1NC45NzY1NjI1LCJ5Ijo5NTh9LHsieCI6MTE1NC45NzY1NjI1LCJ5IjoxMDIyfSx7IngiOjExNTQuOTc2NTYyNSwieSI6MTA1OX0seyJ4IjoxMTU0Ljk3NjU2MjUsInkiOjEwOTZ9LHsieCI6MTE1NC45NzY1NjI1LCJ5IjoxMTQ4fSx7IngiOjExNTQuOTc2NTYyNSwieSI6MTIwMH0seyJ4IjoxMTU0Ljk3NjU2MjUsInkiOjEyNjR9LHsieCI6MTE1NC45NzY1NjI1LCJ5IjoxMzI4fSx7IngiOjExNTQuOTc2NTYyNSwieSI6MTM5Mn0seyJ4IjoxMTU0Ljk3NjU2MjUsInkiOjE0NTZ9LHsieCI6MTE1NC45NzY1NjI1LCJ5IjoxNDgxfSx7IngiOjExNTQuOTc2NTYyNSwieSI6MTUwNn0seyJ4IjoxMTM2LjUyMTcyODUxNTYyNSwieSI6MTU0M31d" marker-end="url(#my-svg_flowchart-v2-pointEnd)"/><path d="M1085.497,465L1081.005,469.167C1076.514,473.333,1067.53,481.667,1063.039,492C1058.547,502.333,1058.547,514.667,1058.547,527C1058.547,539.333,1058.547,551.667,1053.876,561.583C1049.205,571.499,1039.863,578.997,1035.192,582.747L1030.522,586.496" id="L_APILambda_S3R_0" class="edge-thickness-normal edge-pattern-solid edge-thickness-normal edge-pattern-solid flowchart-link" style=";" data-edge="true" data-et="edge" data-id="L_APILambda_S3R_0" data-points="W3sieCI6MTA4NS40OTY5NDgyNDIxODc1LCJ5Ijo0NjV9LHsieCI6MTA1OC41NDY4NzUsInkiOjQ5MH0seyJ4IjoxMDU4LjU0Njg3NSwieSI6NTI3fSx7IngiOjEwNTguNTQ2ODc1LCJ5Ijo1NjR9LHsieCI6MTAyNy40MDIxNjA2NDQ1MzEyLCJ5Ijo1ODl9XQ==" marker-end="url(#my-svg_flowchart-v2-pointEnd)"/><path d="M1227.879,83.768L1175.76,92.473C1123.642,101.179,1019.405,118.589,967.286,133.461C915.168,148.333,915.168,160.667,915.168,173C915.168,185.333,915.168,197.667,915.168,214.5C915.168,231.333,915.168,252.667,915.168,276C915.168,299.333,915.168,324.667,915.168,350C915.168,375.333,915.168,400.667,915.168,424C915.168,447.333,915.168,468.667,915.168,485.5C915.168,502.333,915.168,514.667,915.168,527C915.168,539.333,915.168,551.667,918.842,561.527C922.515,571.388,929.863,578.776,933.536,582.47L937.21,586.164" id="L_Browser_S3R_0" class="edge-thickness-normal edge-pattern-solid edge-thickness-normal edge-pattern-solid flowchart-link" style=";" data-edge="true" data-et="edge" data-id="L_Browser_S3R_0" data-points="W3sieCI6MTIyNy44Nzg5MDYyNSwieSI6ODMuNzY3ODA1MDc2OTcwMTN9LHsieCI6OTE1LjE2Nzk2ODc1LCJ5IjoxMzZ9LHsieCI6OTE1LjE2Nzk2ODc1LCJ5IjoxNzN9LHsieCI6OTE1LjE2Nzk2ODc1LCJ5IjoyMTB9LHsieCI6OTE1LjE2Nzk2ODc1LCJ5IjoyNzR9LHsieCI6OTE1LjE2Nzk2ODc1LCJ5IjozNTB9LHsieCI6OTE1LjE2Nzk2ODc1LCJ5Ijo0MjZ9LHsieCI6OTE1LjE2Nzk2ODc1LCJ5Ijo0OTB9LHsieCI6OTE1LjE2Nzk2ODc1LCJ5Ijo1Mjd9LHsieCI6OTE1LjE2Nzk2ODc1LCJ5Ijo1NjR9LHsieCI6OTQwLjAzMDYzOTY0ODQzNzUsInkiOjU4OX1d" marker-end="url(#my-svg_flowchart-v2-pointEnd)"/><path d="M978.816,667L978.816,673.167C978.816,679.333,978.816,691.667,978.816,704C978.816,716.333,978.816,728.667,882.138,744.165C785.46,759.664,592.104,778.327,495.425,787.659L398.747,796.991" id="L_S3R_SQS_0" class="edge-thickness-normal edge-pattern-solid edge-thickness-normal edge-pattern-solid flowchart-link" style=";" data-edge="true" data-et="edge" data-id="L_S3R_SQS_0" data-points="W3sieCI6OTc4LjgxNjQwNjI1LCJ5Ijo2Njd9LHsieCI6OTc4LjgxNjQwNjI1LCJ5Ijo3MDR9LHsieCI6OTc4LjgxNjQwNjI1LCJ5Ijo3NDF9LHsieCI6Mzk0Ljc2NTYyNSwieSI6Nzk3LjM3NTMwNTYxNjI2OTd9XQ==" marker-end="url(#my-svg_flowchart-v2-pointEnd)"/><path d="M315.773,844L315.773,848.167C315.773,852.333,315.773,860.667,315.773,869C315.773,877.333,315.773,885.667,315.773,893.333C315.773,901,315.773,908,315.773,911.5L315.773,915" id="L_SQS_Pipes_0" class="edge-thickness-normal edge-pattern-solid edge-thickness-normal edge-pattern-solid flowchart-link" style=";" data-edge="true" data-et="edge" data-id="L_SQS_Pipes_0" data-points="W3sieCI6MzE1Ljc3MzQzNzUsInkiOjg0NH0seyJ4IjozMTUuNzczNDM3NSwieSI6ODY5fSx7IngiOjMxNS43NzM0Mzc1LCJ5Ijo4OTR9LHsieCI6MzE1Ljc3MzQzNzUsInkiOjkxOX1d" marker-end="url(#my-svg_flowchart-v2-pointEnd)"/><path d="M315.773,997L315.773,1001.167C315.773,1005.333,315.773,1013.667,315.773,1024C315.773,1034.333,315.773,1046.667,315.773,1059C315.773,1071.333,315.773,1083.667,315.773,1093.333C315.773,1103,315.773,1110,315.773,1113.5L315.773,1117" id="L_Pipes_SF_0" class="edge-thickness-normal edge-pattern-solid edge-thickness-normal edge-pattern-solid flowchart-link" style=";" data-edge="true" data-et="edge" data-id="L_Pipes_SF_0" data-points="W3sieCI6MzE1Ljc3MzQzNzUsInkiOjk5N30seyJ4IjozMTUuNzczNDM3NSwieSI6MTAyMn0seyJ4IjozMTUuNzczNDM3NSwieSI6MTA1OX0seyJ4IjozMTUuNzczNDM3NSwieSI6MTA5Nn0seyJ4IjozMTUuNzczNDM3NSwieSI6MTEyMX1d" marker-end="url(#my-svg_flowchart-v2-pointEnd)"/><path d="M398.281,1161.206L438.676,1167.672C479.072,1174.137,559.862,1187.069,600.257,1197.034C640.652,1207,640.652,1214,640.652,1217.5L640.652,1221" id="L_SF_LTxt_0" class="edge-thickness-normal edge-pattern-solid edge-thickness-normal edge-pattern-solid flowchart-link" style=";" data-edge="true" data-et="edge" data-id="L_SF_LTxt_0" data-points="W3sieCI6Mzk4LjI4MTI1LCJ5IjoxMTYxLjIwNjE3MDU2ODM2MX0seyJ4Ijo2NDAuNjUyMzQzNzUsInkiOjEyMDB9LHsieCI6NjQwLjY1MjM0Mzc1LCJ5IjoxMjI1fV0=" marker-end="url(#my-svg_flowchart-v2-pointEnd)"/><path d="M315.773,1175L315.773,1179.167C315.773,1183.333,315.773,1191.667,315.773,1206.5C315.773,1221.333,315.773,1242.667,315.773,1264C315.773,1285.333,315.773,1306.667,315.773,1320.833C315.773,1335,315.773,1342,315.773,1345.5L315.773,1349" id="L_SF_LBR_0" class="edge-thickness-normal edge-pattern-solid edge-thickness-normal edge-pattern-solid flowchart-link" style=";" data-edge="true" data-et="edge" data-id="L_SF_LBR_0" data-points="W3sieCI6MzE1Ljc3MzQzNzUsInkiOjExNzV9LHsieCI6MzE1Ljc3MzQzNzUsInkiOjEyMDB9LHsieCI6MzE1Ljc3MzQzNzUsInkiOjEyNjR9LHsieCI6MzE1Ljc3MzQzNzUsInkiOjEzMjh9LHsieCI6MzE1Ljc3MzQzNzUsInkiOjEzNTN9XQ==" marker-end="url(#my-svg_flowchart-v2-pointEnd)"/><path d="M676.729,1303L680.584,1307.167C684.438,1311.333,692.147,1319.667,696.001,1334.5C699.855,1349.333,699.855,1370.667,699.855,1392C699.855,1413.333,699.855,1434.667,699.855,1449.5C699.855,1464.333,699.855,1472.667,699.855,1481C699.855,1489.333,699.855,1497.667,699.855,1505.333C699.855,1513,699.855,1520,699.855,1523.5L699.855,1527" id="L_LTxt_Textract_0" class="edge-thickness-normal edge-pattern-solid edge-thickness-normal edge-pattern-solid flowchart-link" style=";" data-edge="true" data-et="edge" data-id="L_LTxt_Textract_0" data-points="W3sieCI6Njc2LjcyOTI0ODA0Njg3NSwieSI6MTMwM30seyJ4Ijo2OTkuODU1NDY4NzUsInkiOjEzMjh9LHsieCI6Njk5Ljg1NTQ2ODc1LCJ5IjoxMzkyfSx7IngiOjY5OS44NTU0Njg3NSwieSI6MTQ1Nn0seyJ4Ijo2OTkuODU1NDY4NzUsInkiOjE0ODF9LHsieCI6Njk5Ljg1NTQ2ODc1LCJ5IjoxNTA2fSx7IngiOjY5OS44NTU0Njg3NSwieSI6MTUzMX1d" marker-end="url(#my-svg_flowchart-v2-pointEnd)"/><path d="M577.032,1303L570.235,1307.167C563.438,1311.333,549.844,1319.667,543.047,1327.333C536.25,1335,536.25,1342,536.25,1345.5L536.25,1349" id="L_LTxt_LNova_0" class="edge-thickness-normal edge-pattern-solid edge-thickness-normal edge-pattern-solid flowchart-link" style=";" data-edge="true" data-et="edge" data-id="L_LTxt_LNova_0" data-points="W3sieCI6NTc3LjAzMjE2NTUyNzM0MzgsInkiOjEzMDN9LHsieCI6NTM2LjI1LCJ5IjoxMzI4fSx7IngiOjUzNi4yNSwieSI6MTM1M31d" marker-end="url(#my-svg_flowchart-v2-pointEnd)"/><path d="M536.25,1431L536.25,1435.167C536.25,1439.333,536.25,1447.667,536.25,1456C536.25,1464.333,536.25,1472.667,536.25,1481C536.25,1489.333,536.25,1497.667,529.337,1506.103C522.424,1514.539,508.597,1523.078,501.684,1527.347L494.771,1531.616" id="L_LNova_Bedrock_0" class="edge-thickness-normal edge-pattern-solid edge-thickness-normal edge-pattern-solid flowchart-link" style=";" data-edge="true" data-et="edge" data-id="L_LNova_Bedrock_0" data-points="W3sieCI6NTM2LjI1LCJ5IjoxNDMxfSx7IngiOjUzNi4yNSwieSI6MTQ1Nn0seyJ4Ijo1MzYuMjUsInkiOjE0ODF9LHsieCI6NTM2LjI1LCJ5IjoxNTA2fSx7IngiOjQ5MS4zNjcxODc1LCJ5IjoxNTMzLjcxODA1NTAzMjAzOTN9XQ==" marker-end="url(#my-svg_flowchart-v2-pointEnd)"/><path d="M315.773,1431L315.773,1435.167C315.773,1439.333,315.773,1447.667,315.773,1456C315.773,1464.333,315.773,1472.667,315.773,1481C315.773,1489.333,315.773,1497.667,324.871,1506.816C333.969,1515.966,352.164,1525.932,361.261,1530.916L370.359,1535.899" id="L_LBR_Bedrock_0" class="edge-thickness-normal edge-pattern-solid edge-thickness-normal edge-pattern-solid flowchart-link" style=";" data-edge="true" data-et="edge" data-id="L_LBR_Bedrock_0" data-points="W3sieCI6MzE1Ljc3MzQzNzUsInkiOjE0MzF9LHsieCI6MzE1Ljc3MzQzNzUsInkiOjE0NTZ9LHsieCI6MzE1Ljc3MzQzNzUsInkiOjE0ODF9LHsieCI6MzE1Ljc3MzQzNzUsInkiOjE1MDZ9LHsieCI6MzczLjg2NzE4NzUsInkiOjE1MzcuODIwMjcyODAwMjE0fV0=" marker-end="url(#my-svg_flowchart-v2-pointEnd)"/><path d="M233.266,1169.666L214.013,1174.722C194.76,1179.777,156.255,1189.889,137.003,1198.444C117.75,1207,117.75,1214,117.75,1217.5L117.75,1221" id="L_SF_LRank_0" class="edge-thickness-normal edge-pattern-solid edge-thickness-normal edge-pattern-solid flowchart-link" style=";" data-edge="true" data-et="edge" data-id="L_SF_LRank_0" data-points="W3sieCI6MjMzLjI2NTYyNSwieSI6MTE2OS42NjYxNTM3ODU0NTh9LHsieCI6MTE3Ljc1LCJ5IjoxMjAwfSx7IngiOjExNy43NSwieSI6MTIyNX1d" marker-end="url(#my-svg_flowchart-v2-pointEnd)"/><path d="M117.75,1303L117.75,1307.167C117.75,1311.333,117.75,1319.667,117.75,1327.333C117.75,1335,117.75,1342,117.75,1345.5L117.75,1349" id="L_LRank_LFin_0" class="edge-thickness-normal edge-pattern-solid edge-thickness-normal edge-pattern-solid flowchart-link" style=";" data-edge="true" data-et="edge" data-id="L_LRank_LFin_0" data-points="W3sieCI6MTE3Ljc1LCJ5IjoxMzAzfSx7IngiOjExNy43NSwieSI6MTMyOH0seyJ4IjoxMTcuNzUsInkiOjEzNTN9XQ==" marker-end="url(#my-svg_flowchart-v2-pointEnd)"/><path d="M117.75,1431L117.75,1435.167C117.75,1439.333,117.75,1447.667,263.107,1456C408.464,1464.333,699.177,1472.667,844.534,1481C989.891,1489.333,989.891,1497.667,1002.121,1507.711C1014.351,1517.756,1038.811,1529.512,1051.041,1535.389L1063.271,1541.267" id="L_LFin_DDB_0" class="edge-thickness-normal edge-pattern-solid edge-thickness-normal edge-pattern-solid flowchart-link" style=";" data-edge="true" data-et="edge" data-id="L_LFin_DDB_0" data-points="W3sieCI6MTE3Ljc1LCJ5IjoxNDMxfSx7IngiOjExNy43NSwieSI6MTQ1Nn0seyJ4Ijo5ODkuODkwNjI1LCJ5IjoxNDgxfSx7IngiOjk4OS44OTA2MjUsInkiOjE1MDZ9LHsieCI6MTA2Ni44NzYwOTg2MzI4MTI1LCJ5IjoxNTQzfV0=" marker-end="url(#my-svg_flowchart-v2-pointEnd)"/></g><g class="edgeLabels"><g class="edgeLabel" transform="translate(1667.875, 173)"><g class="label" data-id="L_Browser_CF_0" transform="translate(-22.8359375, -12)"><foreignObject width="45.671875" height="24"><div xmlns="http://www.w3.org/1999/xhtml" class="labelBkg" style="display: table-cell; white-space: nowrap; line-height: 1.5; max-width: 200px; text-align: center;"><span class="edgeLabel"><p>HTTPS</p></span></div></foreignObject></g></g><g class="edgeLabel"><g class="label" data-id="L_CF_S3F_0" transform="translate(0, 0)"><foreignObject width="0" height="0"><div xmlns="http://www.w3.org/1999/xhtml" class="labelBkg" style="display: table-cell; white-space: nowrap; line-height: 1.5; max-width: 200px; text-align: center;"><span class="edgeLabel"></span></div></foreignObject></g></g><g class="edgeLabel" transform="translate(1488.7578125, 350)"><g class="label" data-id="L_Browser_Cognito_0" transform="translate(-37.84375, -12)"><foreignObject width="75.6875" height="24"><div xmlns="http://www.w3.org/1999/xhtml" class="labelBkg" style="display: table-cell; white-space: nowrap; line-height: 1.5; max-width: 200px; text-align: center;"><span class="edgeLabel"><p>Auth flows</p></span></div></foreignObject></g></g><g class="edgeLabel"><g class="label" data-id="L_Cognito_PreSignUp_0" transform="translate(0, 0)"><foreignObject width="0" height="0"><div xmlns="http://www.w3.org/1999/xhtml" class="labelBkg" style="display: table-cell; white-space: nowrap; line-height: 1.5; max-width: 200px; text-align: center;"><span class="edgeLabel"></span></div></foreignObject></g></g><g class="edgeLabel" transform="translate(1223.8515625, 173)"><g class="label" data-id="L_Browser_APIGW_0" transform="translate(-29.9375, -12)"><foreignObject width="59.875" height="24"><div xmlns="http://www.w3.org/1999/xhtml" class="labelBkg" style="display: table-cell; white-space: nowrap; line-height: 1.5; max-width: 200px; text-align: center;"><span class="edgeLabel"><p>API calls</p></span></div></foreignObject></g></g><g class="edgeLabel"><g class="label" data-id="L_APIGW_CogAuth_0" transform="translate(0, 0)"><foreignObject width="0" height="0"><div xmlns="http://www.w3.org/1999/xhtml" class="labelBkg" style="display: table-cell; white-space: nowrap; line-height: 1.5; max-width: 200px; text-align: center;"><span class="edgeLabel"></span></div></foreignObject></g></g><g class="edgeLabel"><g class="label" data-id="L_CogAuth_Cognito_0" transform="translate(0, 0)"><foreignObject width="0" height="0"><div xmlns="http://www.w3.org/1999/xhtml" class="labelBkg" style="display: table-cell; white-space: nowrap; line-height: 1.5; max-width: 200px; text-align: center;"><span class="edgeLabel"></span></div></foreignObject></g></g><g class="edgeLabel"><g class="label" data-id="L_APIGW_APILambda_0" transform="translate(0, 0)"><foreignObject width="0" height="0"><div xmlns="http://www.w3.org/1999/xhtml" class="labelBkg" style="display: table-cell; white-space: nowrap; line-height: 1.5; max-width: 200px; text-align: center;"><span class="edgeLabel"></span></div></foreignObject></g></g><g class="edgeLabel"><g class="label" data-id="L_APILambda_DDB_0" transform="translate(0, 0)"><foreignObject width="0" height="0"><div xmlns="http://www.w3.org/1999/xhtml" class="labelBkg" style="display: table-cell; white-space: nowrap; line-height: 1.5; max-width: 200px; text-align: center;"><span class="edgeLabel"></span></div></foreignObject></g></g><g class="edgeLabel" transform="translate(1058.546875, 527)"><g class="label" data-id="L_APILambda_S3R_0" transform="translate(-53.828125, -12)"><foreignObject width="107.65625" height="24"><div xmlns="http://www.w3.org/1999/xhtml" class="labelBkg" style="display: table-cell; white-space: nowrap; line-height: 1.5; max-width: 200px; text-align: center;"><span class="edgeLabel"><p>Presigned URLs</p></span></div></foreignObject></g></g><g class="edgeLabel" transform="translate(915.16796875, 350)"><g class="label" data-id="L_Browser_S3R_0" transform="translate(-48.34375, -12)"><foreignObject width="96.6875" height="24"><div xmlns="http://www.w3.org/1999/xhtml" class="labelBkg" style="display: table-cell; white-space: nowrap; line-height: 1.5; max-width: 200px; text-align: center;"><span class="edgeLabel"><p>Direct upload</p></span></div></foreignObject></g></g><g class="edgeLabel" transform="translate(978.81640625, 704)"><g class="label" data-id="L_S3R_SQS_0" transform="translate(-52.734375, -12)"><foreignObject width="105.46875" height="24"><div xmlns="http://www.w3.org/1999/xhtml" class="labelBkg" style="display: table-cell; white-space: nowrap; line-height: 1.5; max-width: 200px; text-align: center;"><span class="edgeLabel"><p>ObjectCreated</p></span></div></foreignObject></g></g><g class="edgeLabel"><g class="label" data-id="L_SQS_Pipes_0" transform="translate(0, 0)"><foreignObject width="0" height="0"><div xmlns="http://www.w3.org/1999/xhtml" class="labelBkg" style="display: table-cell; white-space: nowrap; line-height: 1.5; max-width: 200px; text-align: center;"><span class="edgeLabel"></span></div></foreignObject></g></g><g class="edgeLabel" transform="translate(315.7734375, 1059)"><g class="label" data-id="L_Pipes_SF_0" transform="translate(-68.0703125, -12)"><foreignObject width="136.140625" height="24"><div xmlns="http://www.w3.org/1999/xhtml" class="labelBkg" style="display: table-cell; white-space: nowrap; line-height: 1.5; max-width: 200px; text-align: center;"><span class="edgeLabel"><p>MaxConcurrency: 2</p></span></div></foreignObject></g></g><g class="edgeLabel"><g class="label" data-id="L_SF_LTxt_0" transform="translate(0, 0)"><foreignObject width="0" height="0"><div xmlns="http://www.w3.org/1999/xhtml" class="labelBkg" style="display: table-cell; white-space: nowrap; line-height: 1.5; max-width: 200px; text-align: center;"><span class="edgeLabel"></span></div></foreignObject></g></g><g class="edgeLabel"><g class="label" data-id="L_SF_LBR_0" transform="translate(0, 0)"><foreignObject width="0" height="0"><div xmlns="http://www.w3.org/1999/xhtml" class="labelBkg" style="display: table-cell; white-space: nowrap; line-height: 1.5; max-width: 200px; text-align: center;"><span class="edgeLabel"></span></div></foreignObject></g></g><g class="edgeLabel"><g class="label" data-id="L_LTxt_Textract_0" transform="translate(0, 0)"><foreignObject width="0" height="0"><div xmlns="http://www.w3.org/1999/xhtml" class="labelBkg" style="display: table-cell; white-space: nowrap; line-height: 1.5; max-width: 200px; text-align: center;"><span class="edgeLabel"></span></div></foreignObject></g></g><g class="edgeLabel"><g class="label" data-id="L_LTxt_LNova_0" transform="translate(0, 0)"><foreignObject width="0" height="0"><div xmlns="http://www.w3.org/1999/xhtml" class="labelBkg" style="display: table-cell; white-space: nowrap; line-height: 1.5; max-width: 200px; text-align: center;"><span class="edgeLabel"></span></div></foreignObject></g></g><g class="edgeLabel"><g class="label" data-id="L_LNova_Bedrock_0" transform="translate(0, 0)"><foreignObject width="0" height="0"><div xmlns="http://www.w3.org/1999/xhtml" class="labelBkg" style="display: table-cell; white-space: nowrap; line-height: 1.5; max-width: 200px; text-align: center;"><span class="edgeLabel"></span></div></foreignObject></g></g><g class="edgeLabel"><g class="label" data-id="L_LBR_Bedrock_0" transform="translate(0, 0)"><foreignObject width="0" height="0"><div xmlns="http://www.w3.org/1999/xhtml" class="labelBkg" style="display: table-cell; white-space: nowrap; line-height: 1.5; max-width: 200px; text-align: center;"><span class="edgeLabel"></span></div></foreignObject></g></g><g class="edgeLabel"><g class="label" data-id="L_SF_LRank_0" transform="translate(0, 0)"><foreignObject width="0" height="0"><div xmlns="http://www.w3.org/1999/xhtml" class="labelBkg" style="display: table-cell; white-space: nowrap; line-height: 1.5; max-width: 200px; text-align: center;"><span class="edgeLabel"></span></div></foreignObject></g></g><g class="edgeLabel"><g class="label" data-id="L_LRank_LFin_0" transform="translate(0, 0)"><foreignObject width="0" height="0"><div xmlns="http://www.w3.org/1999/xhtml" class="labelBkg" style="display: table-cell; white-space: nowrap; line-height: 1.5; max-width: 200px; text-align: center;"><span class="edgeLabel"></span></div></foreignObject></g></g><g class="edgeLabel"><g class="label" data-id="L_LFin_DDB_0" transform="translate(0, 0)"><foreignObject width="0" height="0"><div xmlns="http://www.w3.org/1999/xhtml" class="labelBkg" style="display: table-cell; white-space: nowrap; line-height: 1.5; max-width: 200px; text-align: center;"><span class="edgeLabel"></span></div></foreignObject></g></g></g><g class="nodes"><g class="node default" id="flowchart-Browser-0" transform="translate(1298.33203125, 72)"><rect class="basic label-container" style="" x="-70.453125" y="-39" width="140.90625" height="78"/><g class="label" style="" transform="translate(-40.453125, -24)"><rect/><foreignObject width="80.90625" height="48"><div xmlns="http://www.w3.org/1999/xhtml" style="display: table-cell; white-space: nowrap; line-height: 1.5; max-width: 200px; text-align: center;"><span class="nodeLabel"><p>Browser<br />(React SPA)</p></span></div></foreignObject></g></g><g class="node default" id="flowchart-CF-1" transform="translate(1667.875, 274)"><rect class="basic label-container" style="" x="-69.4140625" y="-27" width="138.828125" height="54"/><g class="label" style="" transform="translate(-39.4140625, -12)"><rect/><foreignObject width="78.828125" height="24"><div xmlns="http://www.w3.org/1999/xhtml" style="display: table-cell; white-space: nowrap; line-height: 1.5; max-width: 200px; text-align: center;"><span class="nodeLabel"><p>CloudFront</p></span></div></foreignObject></g></g><g class="node default" id="flowchart-S3F-2" transform="translate(1667.875, 426)"><rect class="basic label-container" style="" x="-86.2734375" y="-39" width="172.546875" height="78"/><g class="label" style="" transform="translate(-56.2734375, -24)"><rect/><foreignObject width="112.546875" height="48"><div xmlns="http://www.w3.org/1999/xhtml" style="display: table-cell; white-space: nowrap; line-height: 1.5; max-width: 200px; text-align: center;"><span class="nodeLabel"><p>S3<br />Frontend Assets</p></span></div></foreignObject></g></g><g class="node default" id="flowchart-Cognito-3" transform="translate(1418.01953125, 628)"><rect class="basic label-container" style="" x="-63.34375" y="-39" width="126.6875" height="78"/><g class="label" style="" transform="translate(-33.34375, -24)"><rect/><foreignObject width="66.6875" height="48"><div xmlns="http://www.w3.org/1999/xhtml" style="display: table-cell; white-space: nowrap; line-height: 1.5; max-width: 200px; text-align: center;"><span class="nodeLabel"><p>Cognito<br />User Pool</p></span></div></foreignObject></g></g><g class="node default" id="flowchart-PreSignUp-4" transform="translate(1418.01953125, 805)"><rect class="basic label-container" style="" x="-71.59375" y="-39" width="143.1875" height="78"/><g class="label" style="" transform="translate(-41.59375, -24)"><rect/><foreignObject width="83.1875" height="48"><div xmlns="http://www.w3.org/1999/xhtml" style="display: table-cell; white-space: nowrap; line-height: 1.5; max-width: 200px; text-align: center;"><span class="nodeLabel"><p>Pre-Sign-Up<br />Lambda</p></span></div></foreignObject></g></g><g class="node default" id="flowchart-APIGW-5" transform="translate(1223.8515625, 274)"><rect class="basic label-container" style="" x="-75.0703125" y="-39" width="150.140625" height="78"/><g class="label" style="" transform="translate(-45.0703125, -24)"><rect/><foreignObject width="90.140625" height="48"><div xmlns="http://www.w3.org/1999/xhtml" style="display: table-cell; white-space: nowrap; line-height: 1.5; max-width: 200px; text-align: center;"><span class="nodeLabel"><p>API Gateway<br />HTTP API</p></span></div></foreignObject></g></g><g class="node default" id="flowchart-CogAuth-6" transform="translate(1324.5859375, 426)"><rect class="basic label-container" style="" x="-67.5859375" y="-39" width="135.171875" height="78"/><g class="label" style="" transform="translate(-37.5859375, -24)"><rect/><foreignObject width="75.171875" height="48"><div xmlns="http://www.w3.org/1999/xhtml" style="display: table-cell; white-space: nowrap; line-height: 1.5; max-width: 200px; text-align: center;"><span class="nodeLabel"><p>Cognito<br />Authorizer</p></span></div></foreignObject></g></g><g class="node default" id="flowchart-APILambda-7" transform="translate(1127.5390625, 426)"><rect class="basic label-container" style="" x="-75.0390625" y="-39" width="150.078125" height="78"/><g class="label" style="" transform="translate(-45.0390625, -24)"><rect/><foreignObject width="90.078125" height="48"><div xmlns="http://www.w3.org/1999/xhtml" style="display: table-cell; white-space: nowrap; line-height: 1.5; max-width: 200px; text-align: center;"><span class="nodeLabel"><p>API Lambda<br />(Powertools)</p></span></div></foreignObject></g></g><g class="node default" id="flowchart-S3R-8" transform="translate(978.81640625, 628)"><rect class="basic label-container" style="" x="-84.03125" y="-39" width="168.0625" height="78"/><g class="label" style="" transform="translate(-54.03125, -24)"><rect/><foreignObject width="108.0625" height="48"><div xmlns="http://www.w3.org/1999/xhtml" style="display: table-cell; white-space: nowrap; line-height: 1.5; max-width: 200px; text-align: center;"><span class="nodeLabel"><p>S3<br />Receipt Images</p></span></div></foreignObject></g></g><g class="node default" id="flowchart-DDB-9" transform="translate(1123.0546875, 1570)"><rect class="basic label-container" style="" x="-67.796875" y="-27" width="135.59375" height="54"/><g class="label" style="" transform="translate(-37.796875, -12)"><rect/><foreignObject width="75.59375" height="24"><div xmlns="http://www.w3.org/1999/xhtml" style="display: table-cell; white-space: nowrap; line-height: 1.5; max-width: 200px; text-align: center;"><span class="nodeLabel"><p>DynamoDB</p></span></div></foreignObject></g></g><g class="node default" id="flowchart-SQS-10" transform="translate(315.7734375, 805)"><rect class="basic label-container" style="" x="-78.9921875" y="-39" width="157.984375" height="78"/><g class="label" style="" transform="translate(-48.9921875, -24)"><rect/><foreignObject width="97.984375" height="48"><div xmlns="http://www.w3.org/1999/xhtml" style="display: table-cell; white-space: nowrap; line-height: 1.5; max-width: 200px; text-align: center;"><span class="nodeLabel"><p>SQS Queue<br />(Burst Buffer)</p></span></div></foreignObject></g></g><g class="node default" id="flowchart-Pipes-11" transform="translate(315.7734375, 958)"><rect class="basic label-container" style="" x="-93.703125" y="-39" width="187.40625" height="78"/><g class="label" style="" transform="translate(-63.703125, -24)"><rect/><foreignObject width="127.40625" height="48"><div xmlns="http://www.w3.org/1999/xhtml" style="display: table-cell; white-space: nowrap; line-height: 1.5; max-width: 200px; text-align: center;"><span class="nodeLabel"><p>EventBridge Pipes<br />(Rate Limiter)</p></span></div></foreignObject></g></g><g class="node default" id="flowchart-SF-12" transform="translate(315.7734375, 1148)"><rect class="basic label-container" style="" x="-82.5078125" y="-27" width="165.015625" height="54"/><g class="label" style="" transform="translate(-52.5078125, -12)"><rect/><foreignObject width="105.015625" height="24"><div xmlns="http://www.w3.org/1999/xhtml" style="display: table-cell; white-space: nowrap; line-height: 1.5; max-width: 200px; text-align: center;"><span class="nodeLabel"><p>Step Functions</p></span></div></foreignObject></g></g><g class="node default" id="flowchart-LTxt-13" transform="translate(640.65234375, 1264)"><rect class="basic label-container" style="" x="-87.9609375" y="-39" width="175.921875" height="78"/><g class="label" style="" transform="translate(-57.9609375, -24)"><rect/><foreignObject width="115.921875" height="48"><div xmlns="http://www.w3.org/1999/xhtml" style="display: table-cell; white-space: nowrap; line-height: 1.5; max-width: 200px; text-align: center;"><span class="nodeLabel"><p>Lambda:<br />Textract Extract</p></span></div></foreignObject></g></g><g class="node default" id="flowchart-LNova-14" transform="translate(536.25, 1392)"><rect class="basic label-container" style="" x="-83.40625" y="-39" width="166.8125" height="78"/><g class="label" style="" transform="translate(-53.40625, -24)"><rect/><foreignObject width="106.8125" height="48"><div xmlns="http://www.w3.org/1999/xhtml" style="display: table-cell; white-space: nowrap; line-height: 1.5; max-width: 200px; text-align: center;"><span class="nodeLabel"><p>Lambda:<br />Nova Structure</p></span></div></foreignObject></g></g><g class="node default" id="flowchart-LBR-15" transform="translate(315.7734375, 1392)"><rect class="basic label-container" style="" x="-87.0703125" y="-39" width="174.140625" height="78"/><g class="label" style="" transform="translate(-57.0703125, -24)"><rect/><foreignObject width="114.140625" height="48"><div xmlns="http://www.w3.org/1999/xhtml" style="display: table-cell; white-space: nowrap; line-height: 1.5; max-width: 200px; text-align: center;"><span class="nodeLabel"><p>Lambda:<br />Bedrock Extract</p></span></div></foreignObject></g></g><g class="node default" id="flowchart-LRank-16" transform="translate(117.75, 1264)"><rect class="basic label-container" style="" x="-74.75" y="-39" width="149.5" height="78"/><g class="label" style="" transform="translate(-44.75, -24)"><rect/><foreignObject width="89.5" height="48"><div xmlns="http://www.w3.org/1999/xhtml" style="display: table-cell; white-space: nowrap; line-height: 1.5; max-width: 200px; text-align: center;"><span class="nodeLabel"><p>Lambda:<br />Rank Results</p></span></div></foreignObject></g></g><g class="node default" id="flowchart-LFin-17" transform="translate(117.75, 1392)"><rect class="basic label-container" style="" x="-60.953125" y="-39" width="121.90625" height="78"/><g class="label" style="" transform="translate(-30.953125, -24)"><rect/><foreignObject width="61.90625" height="48"><div xmlns="http://www.w3.org/1999/xhtml" style="display: table-cell; white-space: nowrap; line-height: 1.5; max-width: 200px; text-align: center;"><span class="nodeLabel"><p>Lambda:<br />Finalize</p></span></div></foreignObject></g></g><g class="node default" id="flowchart-Textract-18" transform="translate(699.85546875, 1570)"><rect class="basic label-container" style="" x="-86.84375" y="-39" width="173.6875" height="78"/><g class="label" style="" transform="translate(-56.84375, -24)"><rect/><foreignObject width="113.6875" height="48"><div xmlns="http://www.w3.org/1999/xhtml" style="display: table-cell; white-space: nowrap; line-height: 1.5; max-width: 200px; text-align: center;"><span class="nodeLabel"><p>Textract<br />AnalyzeExpense</p></span></div></foreignObject></g></g><g class="node default" id="flowchart-Bedrock-19" transform="translate(432.6171875, 1570)"><rect class="basic label-container" style="" x="-58.75" y="-39" width="117.5" height="78"/><g class="label" style="" transform="translate(-28.75, -24)"><rect/><foreignObject width="57.5" height="48"><div xmlns="http://www.w3.org/1999/xhtml" style="display: table-cell; white-space: nowrap; line-height: 1.5; max-width: 200px; text-align: center;"><span class="nodeLabel"><p>Bedrock<br />(Nova)</p></span></div></foreignObject></g></g></g></g></g></svg>